<svg xmlns="http://www.w3.org/2000/svg" width="1200" height="630" viewBox="0 0 1200 630" role="img" aria-labelledby="title desc">
  <title id="title">JooPark Workspace social preview</title>
  <desc id="desc">A preview card showing the JooPark Workspace dashboard, task board, portfolio, and database catalog surfaces.</desc>
  <rect width="1200" height="630" fill="#050b14"/>
  <rect x="48" y="48" width="1104" height="534" rx="18" fill="#0e1930" stroke="#245079" stroke-width="2"/>
  <rect x="48" y="48" width="244" height="534" rx="18" fill="#081426"/>
  <rect x="76" y="82" width="54" height="54" rx="14" fill="#071427" stroke="#22d3ee" stroke-width="4"/>
  <text x="103" y="121" text-anchor="middle" font-family="Arial, Helvetica, sans-serif" font-size="32" font-weight="700" fill="#e8f3ff">J</text>
  <text x="148" y="103" font-family="Arial, Helvetica, sans-serif" font-size="30" font-weight="800" fill="#e8f3ff">JooPark</text>
  <text x="149" y="128" font-family="Arial, Helvetica, sans-serif" font-size="15" fill="#7f91ad">Workspace v3.0</text>
  <g font-family="Arial, Helvetica, sans-serif" font-size="16" fill="#dceaff">
    <rect x="76" y="172" width="188" height="42" rx="8" fill="#12375e" stroke="#22d3ee"/>
    <text x="98" y="199">Dashboard</text>
    <text x="98" y="254" fill="#7f91ad">Calendar</text>
    <text x="98" y="298" fill="#7f91ad">Tasks</text>
    <text x="98" y="342" fill="#7f91ad">Notes</text>
    <text x="98" y="386" fill="#7f91ad">Portfolio</text>
    <text x="98" y="430" fill="#7f91ad">DB catalog</text>
  </g>
  <rect x="324" y="82" width="790" height="78" rx="12" fill="#0f1c30" stroke="#245079"/>
  <text x="354" y="118" font-family="Arial, Helvetica, sans-serif" font-size="34" font-weight="800" fill="#e8f3ff">Local-first control plane</text>
  <text x="355" y="145" font-family="Arial, Helvetica, sans-serif" font-size="18" fill="#7f91ad">Personal productivity, project portfolio, and database catalog in one static SPA</text>
  <g font-family="Arial, Helvetica, sans-serif">
    <rect x="324" y="192" width="244" height="126" rx="12" fill="#10233d" stroke="#245079"/>
    <text x="348" y="228" font-size="18" font-weight="700" fill="#22d3ee">Today</text>
    <text x="348" y="265" font-size="42" font-weight="800" fill="#e8f3ff">7</text>
    <text x="404" y="265" font-size="18" fill="#7f91ad">open actions</text>
    <rect x="592" y="192" width="244" height="126" rx="12" fill="#10233d" stroke="#245079"/>
    <text x="616" y="228" font-size="18" font-weight="700" fill="#17d983">Projects</text>
    <text x="616" y="265" font-size="42" font-weight="800" fill="#e8f3ff">38</text>
    <text x="690" y="265" font-size="18" fill="#7f91ad">benchmarked</text>
    <rect x="860" y="192" width="254" height="126" rx="12" fill="#10233d" stroke="#245079"/>
    <text x="884" y="228" font-size="18" font-weight="700" fill="#f7a928">Storage</text>
    <text x="884" y="265" font-size="42" font-weight="800" fill="#e8f3ff">Local</text>
    <text x="884" y="292" font-size="18" fill="#7f91ad">browser-backed data</text>
  </g>
  <g font-family="Arial, Helvetica, sans-serif">
    <rect x="324" y="352" width="372" height="170" rx="12" fill="#0f1c30" stroke="#245079"/>
    <text x="348" y="388" font-size="19" font-weight="800" fill="#e8f3ff">Kanban and PM</text>
    <rect x="348" y="414" width="92" height="78" rx="8" fill="#142846"/>
    <rect x="460" y="414" width="92" height="78" rx="8" fill="#142846"/>
    <rect x="572" y="414" width="92" height="78" rx="8" fill="#142846"/>
    <path d="M363 438h60M363 462h44M475 438h60M475 462h38M587 438h60M587 462h50" stroke="#7f91ad" stroke-width="8" stroke-linecap="round"/>
    <rect x="742" y="352" width="372" height="170" rx="12" fill="#0f1c30" stroke="#245079"/>
    <text x="766" y="388" font-size="19" font-weight="800" fill="#e8f3ff">Database catalog</text>
    <path d="M778 430h294M778 468h242" stroke="#245079" stroke-width="2"/>
    <circle cx="798" cy="430" r="9" fill="#22d3ee"/>
    <circle cx="798" cy="468" r="9" fill="#17d983"/>
    <path d="M828 430h132M828 468h174" stroke="#7f91ad" stroke-width="10" stroke-linecap="round"/>
  </g>
</svg>
